<svg xmlns="http://www.w3.org/2000/svg" xmlns:xlink="http://www.w3.org/1999/xlink"><defs/><symbol id="arrow-down-left" viewBox="0 0 24 24" fill="none" stroke="currentColor" stroke-width="2" stroke-linecap="round" stroke-linejoin="round" class="lucide lucide-arrow-down-left">
  <path d="M17 7 7 17"/>
  <path d="M17 17H7V7"/>
</symbol><symbol id="arrow-down-right" viewBox="0 0 24 24" fill="none" stroke="currentColor" stroke-width="2" stroke-linecap="round" stroke-linejoin="round" class="lucide lucide-arrow-down-right">
  <path d="m7 7 10 10"/>
  <path d="M17 7v10H7"/>
</symbol><symbol id="arrow-down" viewBox="0 0 24 24" fill="none" stroke="currentColor" stroke-width="2" stroke-linecap="round" stroke-linejoin="round" class="lucide lucide-arrow-down">
  <path d="M12 5v14"/>
  <path d="m19 12-7 7-7-7"/>
</symbol><symbol id="arrow-left" viewBox="0 0 24 24" fill="none" stroke="currentColor" stroke-width="2" stroke-linecap="round" stroke-linejoin="round" class="lucide lucide-arrow-left">
  <path d="m12 19-7-7 7-7"/>
  <path d="M19 12H5"/>
</symbol><symbol id="arrow-right" viewBox="0 0 24 24" fill="none" stroke="currentColor" stroke-width="2" stroke-linecap="round" stroke-linejoin="round" class="lucide lucide-arrow-right">
  <path d="M5 12h14"/>
  <path d="m12 5 7 7-7 7"/>
</symbol><symbol id="arrow-up-left" viewBox="0 0 24 24" fill="none" stroke="currentColor" stroke-width="2" stroke-linecap="round" stroke-linejoin="round" class="lucide lucide-arrow-up-left">
  <path d="M7 17V7h10"/>
  <path d="M17 17 7 7"/>
</symbol><symbol id="arrow-up-right" viewBox="0 0 24 24" fill="none" stroke="currentColor" stroke-width="2" stroke-linecap="round" stroke-linejoin="round" class="lucide lucide-arrow-up-right">
  <path d="M7 7h10v10"/>
  <path d="M7 17 17 7"/>
</symbol><symbol id="arrow-up" viewBox="0 0 24 24" fill="none" stroke="currentColor" stroke-width="2" stroke-linecap="round" stroke-linejoin="round" class="lucide lucide-arrow-up">
  <path d="m5 12 7-7 7 7"/>
  <path d="M12 19V5"/>
</symbol><symbol id="clock-1" viewBox="0 0 24 24" fill="none" stroke="currentColor" stroke-width="2" stroke-linecap="round" stroke-linejoin="round" class="lucide lucide-clock-1">
  <path d="M12 6v6l2-4"/>
  <circle cx="12" cy="12" r="10"/>
</symbol><symbol id="clock-10" viewBox="0 0 24 24" fill="none" stroke="currentColor" stroke-width="2" stroke-linecap="round" stroke-linejoin="round" class="lucide lucide-clock-10">
  <path d="M12 6v6l-4-2"/>
  <circle cx="12" cy="12" r="10"/>
</symbol><symbol id="clock-11" viewBox="0 0 24 24" fill="none" stroke="currentColor" stroke-width="2" stroke-linecap="round" stroke-linejoin="round" class="lucide lucide-clock-11">
  <path d="M12 6v6l-2-4"/>
  <circle cx="12" cy="12" r="10"/>
</symbol><symbol id="clock" viewBox="0 0 24 24" fill="none" stroke="currentColor" stroke-width="2" stroke-linecap="round" stroke-linejoin="round" class="lucide lucide-clock">
  <path d="M12 6v6l4 2"/>
  <circle cx="12" cy="12" r="10"/>
</symbol><symbol id="figma" viewBox="0 0 24 24" fill="none" stroke="currentColor" stroke-width="2" stroke-linecap="round" stroke-linejoin="round" class="lucide lucide-figma">
  <path d="M5 5.5A3.5 3.5 0 0 1 8.5 2H12v7H8.5A3.5 3.5 0 0 1 5 5.5z"/>
  <path d="M12 2h3.5a3.5 3.5 0 1 1 0 7H12V2z"/>
  <path d="M12 12.5a3.5 3.5 0 1 1 7 0 3.5 3.5 0 1 1-7 0z"/>
  <path d="M5 19.5A3.5 3.5 0 0 1 8.5 16H12v3.5a3.5 3.5 0 1 1-7 0z"/>
  <path d="M5 12.5A3.5 3.5 0 0 1 8.5 9H12v7H8.5A3.5 3.5 0 0 1 5 12.5z"/>
</symbol><symbol id="mail" viewBox="0 0 24 24" fill="none" stroke="currentColor" stroke-width="2" stroke-linecap="round" stroke-linejoin="round" class="lucide lucide-mail">
  <path d="m22 7-8.991 5.727a2 2 0 0 1-2.009 0L2 7"/>
  <rect x="2" y="4" width="20" height="16" rx="2"/>
</symbol></svg>