<svg xmlns="http://www.w3.org/2000/svg" aria-hidden="true" focusable="false"><defs/><symbol id="a-arrow-down" viewBox="0 0 24 24" fill="none" stroke="currentColor" stroke-width="2" stroke-linecap="round" stroke-linejoin="round">
  <path d="M3.5 13h6"/>
  <path d="m2 16 4.5-9 4.5 9"/>
  <path d="M18 7v9"/>
  <path d="m14 12 4 4 4-4"/>
</symbol><symbol id="a-arrow-up" viewBox="0 0 24 24" fill="none" stroke="currentColor" stroke-width="2" stroke-linecap="round" stroke-linejoin="round">
  <path d="M3.5 13h6"/>
  <path d="m2 16 4.5-9 4.5 9"/>
  <path d="M18 16V7"/>
  <path d="m14 11 4-4 4 4"/>
</symbol><symbol id="a-large-small" viewBox="0 0 24 24" fill="none" stroke="currentColor" stroke-width="2" stroke-linecap="round" stroke-linejoin="round">
  <path d="M21 14h-5"/>
  <path d="M16 16v-3.5a2.5 2.5 0 0 1 5 0V16"/>
  <path d="M4.5 13h6"/>
  <path d="m3 16 4.5-9 4.5 9"/>
</symbol><symbol id="accessibility" viewBox="0 0 24 24" fill="none" stroke="currentColor" stroke-width="2" stroke-linecap="round" stroke-linejoin="round">
  <circle cx="16" cy="4" r="1"/>
  <path d="m18 19 1-7-6 1"/>
  <path d="m5 8 3-3 5.5 3-2.36 3.5"/>
  <path d="M4.24 14.5a5 5 0 0 0 6.88 6"/>
  <path d="M13.76 17.5a5 5 0 0 0-6.88-6"/>
</symbol><symbol id="activity" viewBox="0 0 24 24" fill="none" stroke="currentColor" stroke-width="2" stroke-linecap="round" stroke-linejoin="round">
  <path d="M22 12h-2.48a2 2 0 0 0-1.93 1.46l-2.35 8.36a.25.25 0 0 1-.48 0L9.24 2.18a.25.25 0 0 0-.48 0l-2.35 8.36A2 2 0 0 1 4.49 12H2"/>
</symbol><symbol id="air-vent" viewBox="0 0 24 24" fill="none" stroke="currentColor" stroke-width="2" stroke-linecap="round" stroke-linejoin="round">
  <path d="M18 17.5a2.5 2.5 0 1 1-4 2.03V12"/>
  <path d="M6 12H4a2 2 0 0 1-2-2V5a2 2 0 0 1 2-2h16a2 2 0 0 1 2 2v5a2 2 0 0 1-2 2h-2"/>
  <path d="M6 8h12"/>
  <path d="M6.6 15.572A2 2 0 1 0 10 17v-5"/>
</symbol><symbol id="airplay" viewBox="0 0 24 24" fill="none" stroke="currentColor" stroke-width="2" stroke-linecap="round" stroke-linejoin="round">
  <path d="M5 17H4a2 2 0 0 1-2-2V5a2 2 0 0 1 2-2h16a2 2 0 0 1 2 2v10a2 2 0 0 1-2 2h-1"/>
  <path d="m12 15 5 6H7Z"/>
</symbol><symbol id="alarm-clock-check" viewBox="0 0 24 24" fill="none" stroke="currentColor" stroke-width="2" stroke-linecap="round" stroke-linejoin="round">
  <circle cx="12" cy="13" r="8"/>
  <path d="M5 3 2 6"/>
  <path d="m22 6-3-3"/>
  <path d="M6.38 18.7 4 21"/>
  <path d="M17.64 18.67 20 21"/>
  <path d="m9 13 2 2 4-4"/>
</symbol><symbol id="alarm-clock-minus" viewBox="0 0 24 24" fill="none" stroke="currentColor" stroke-width="2" stroke-linecap="round" stroke-linejoin="round">
  <circle cx="12" cy="13" r="8"/>
  <path d="M5 3 2 6"/>
  <path d="m22 6-3-3"/>
  <path d="M6.38 18.7 4 21"/>
  <path d="M17.64 18.67 20 21"/>
  <path d="M9 13h6"/>
</symbol><symbol id="alarm-clock-off" viewBox="0 0 24 24" fill="none" stroke="currentColor" stroke-width="2" stroke-linecap="round" stroke-linejoin="round">
  <path d="M6.87 6.87a8 8 0 1 0 11.26 11.26"/>
  <path d="M19.9 14.25a8 8 0 0 0-9.15-9.15"/>
  <path d="m22 6-3-3"/>
  <path d="M6.26 18.67 4 21"/>
  <path d="m2 2 20 20"/>
  <path d="M4 4 2 6"/>
</symbol><symbol id="alarm-clock-plus" viewBox="0 0 24 24" fill="none" stroke="currentColor" stroke-width="2" stroke-linecap="round" stroke-linejoin="round">
  <circle cx="12" cy="13" r="8"/>
  <path d="M5 3 2 6"/>
  <path d="m22 6-3-3"/>
  <path d="M6.38 18.7 4 21"/>
  <path d="M17.64 18.67 20 21"/>
  <path d="M12 10v6"/>
  <path d="M9 13h6"/>
</symbol><symbol id="alarm-clock" viewBox="0 0 24 24" fill="none" stroke="currentColor" stroke-width="2" stroke-linecap="round" stroke-linejoin="round">
  <circle cx="12" cy="13" r="8"/>
  <path d="M12 9v4l2 2"/>
  <path d="M5 3 2 6"/>
  <path d="m22 6-3-3"/>
  <path d="M6.38 18.7 4 21"/>
  <path d="M17.64 18.67 20 21"/>
</symbol><symbol id="alarm-smoke" viewBox="0 0 24 24" fill="none" stroke="currentColor" stroke-width="2" stroke-linecap="round" stroke-linejoin="round">
  <path d="M11 21c0-2.5 2-2.5 2-5"/>
  <path d="M16 21c0-2.5 2-2.5 2-5"/>
  <path d="m19 8-.8 3a1.25 1.25 0 0 1-1.2 1H7a1.25 1.25 0 0 1-1.2-1L5 8"/>
  <path d="M21 3a1 1 0 0 1 1 1v2a2 2 0 0 1-2 2H4a2 2 0 0 1-2-2V4a1 1 0 0 1 1-1z"/>
  <path d="M6 21c0-2.5 2-2.5 2-5"/>
</symbol><symbol id="album" viewBox="0 0 24 24" fill="none" stroke="currentColor" stroke-width="2" stroke-linecap="round" stroke-linejoin="round">
  <rect width="18" height="18" x="3" y="3" rx="2" ry="2"/>
  <polyline points="11 3 11 11 14 8 17 11 17 3"/>
</symbol><symbol id="align-center-horizontal" viewBox="0 0 24 24" fill="none" stroke="currentColor" stroke-width="2" stroke-linecap="round" stroke-linejoin="round">
  <path d="M2 12h20"/>
  <path d="M10 16v4a2 2 0 0 1-2 2H6a2 2 0 0 1-2-2v-4"/>
  <path d="M10 8V4a2 2 0 0 0-2-2H6a2 2 0 0 0-2 2v4"/>
  <path d="M20 16v1a2 2 0 0 1-2 2h-2a2 2 0 0 1-2-2v-1"/>
  <path d="M14 8V7c0-1.1.9-2 2-2h2a2 2 0 0 1 2 2v1"/>
</symbol><symbol id="align-center-vertical" viewBox="0 0 24 24" fill="none" stroke="currentColor" stroke-width="2" stroke-linecap="round" stroke-linejoin="round">
  <path d="M12 2v20"/>
  <path d="M8 10H4a2 2 0 0 1-2-2V6c0-1.1.9-2 2-2h4"/>
  <path d="M16 10h4a2 2 0 0 0 2-2V6a2 2 0 0 0-2-2h-4"/>
  <path d="M8 20H7a2 2 0 0 1-2-2v-2c0-1.1.9-2 2-2h1"/>
  <path d="M16 14h1a2 2 0 0 1 2 2v2a2 2 0 0 1-2 2h-1"/>
</symbol><symbol id="align-center" viewBox="0 0 24 24" fill="none" stroke="currentColor" stroke-width="2" stroke-linecap="round" stroke-linejoin="round">
  <path d="M17 12H7"/>
  <path d="M19 18H5"/>
  <path d="M21 6H3"/>
</symbol><symbol id="align-end-horizontal" viewBox="0 0 24 24" fill="none" stroke="currentColor" stroke-width="2" stroke-linecap="round" stroke-linejoin="round">
  <rect width="6" height="16" x="4" y="2" rx="2"/>
  <rect width="6" height="9" x="14" y="9" rx="2"/>
  <path d="M22 22H2"/>
</symbol><symbol id="align-end-vertical" viewBox="0 0 24 24" fill="none" stroke="currentColor" stroke-width="2" stroke-linecap="round" stroke-linejoin="round">
  <rect width="16" height="6" x="2" y="4" rx="2"/>
  <rect width="9" height="6" x="9" y="14" rx="2"/>
  <path d="M22 22V2"/>
</symbol><symbol id="align-horizontal-distribute-center" viewBox="0 0 24 24" fill="none" stroke="currentColor" stroke-width="2" stroke-linecap="round" stroke-linejoin="round">
  <rect width="6" height="14" x="4" y="5" rx="2"/>
  <rect width="6" height="10" x="14" y="7" rx="2"/>
  <path d="M17 22v-5"/>
  <path d="M17 7V2"/>
  <path d="M7 22v-3"/>
  <path d="M7 5V2"/>
</symbol><symbol id="align-horizontal-distribute-end" viewBox="0 0 24 24" fill="none" stroke="currentColor" stroke-width="2" stroke-linecap="round" stroke-linejoin="round">
  <rect width="6" height="14" x="4" y="5" rx="2"/>
  <rect width="6" height="10" x="14" y="7" rx="2"/>
  <path d="M10 2v20"/>
  <path d="M20 2v20"/>
</symbol><symbol id="align-horizontal-distribute-start" viewBox="0 0 24 24" fill="none" stroke="currentColor" stroke-width="2" stroke-linecap="round" stroke-linejoin="round">
  <rect width="6" height="14" x="4" y="5" rx="2"/>
  <rect width="6" height="10" x="14" y="7" rx="2"/>
  <path d="M4 2v20"/>
  <path d="M14 2v20"/>
</symbol><symbol id="align-horizontal-justify-center" viewBox="0 0 24 24" fill="none" stroke="currentColor" stroke-width="2" stroke-linecap="round" stroke-linejoin="round">
  <rect width="6" height="14" x="2" y="5" rx="2"/>
  <rect width="6" height="10" x="16" y="7" rx="2"/>
  <path d="M12 2v20"/>
</symbol><symbol id="align-horizontal-justify-end" viewBox="0 0 24 24" fill="none" stroke="currentColor" stroke-width="2" stroke-linecap="round" stroke-linejoin="round">
  <rect width="6" height="14" x="2" y="5" rx="2"/>
  <rect width="6" height="10" x="12" y="7" rx="2"/>
  <path d="M22 2v20"/>
</symbol><symbol id="align-horizontal-justify-start" viewBox="0 0 24 24" fill="none" stroke="currentColor" stroke-width="2" stroke-linecap="round" stroke-linejoin="round">
  <rect width="6" height="14" x="6" y="5" rx="2"/>
  <rect width="6" height="10" x="16" y="7" rx="2"/>
  <path d="M2 2v20"/>
</symbol><symbol id="align-horizontal-space-around" viewBox="0 0 24 24" fill="none" stroke="currentColor" stroke-width="2" stroke-linecap="round" stroke-linejoin="round">
  <rect width="6" height="10" x="9" y="7" rx="2"/>
  <path d="M4 22V2"/>
  <path d="M20 22V2"/>
</symbol><symbol id="align-horizontal-space-between" viewBox="0 0 24 24" fill="none" stroke="currentColor" stroke-width="2" stroke-linecap="round" stroke-linejoin="round">
  <rect width="6" height="14" x="3" y="5" rx="2"/>
  <rect width="6" height="10" x="15" y="7" rx="2"/>
  <path d="M3 2v20"/>
  <path d="M21 2v20"/>
</symbol><symbol id="align-justify" viewBox="0 0 24 24" fill="none" stroke="currentColor" stroke-width="2" stroke-linecap="round" stroke-linejoin="round">
  <path d="M3 12h18"/>
  <path d="M3 18h18"/>
  <path d="M3 6h18"/>
</symbol><symbol id="align-left" viewBox="0 0 24 24" fill="none" stroke="currentColor" stroke-width="2" stroke-linecap="round" stroke-linejoin="round">
  <path d="M15 12H3"/>
  <path d="M17 18H3"/>
  <path d="M21 6H3"/>
</symbol><symbol id="align-right" viewBox="0 0 24 24" fill="none" stroke="currentColor" stroke-width="2" stroke-linecap="round" stroke-linejoin="round">
  <path d="M21 12H9"/>
  <path d="M21 18H7"/>
  <path d="M21 6H3"/>
</symbol><symbol id="align-start-horizontal" viewBox="0 0 24 24" fill="none" stroke="currentColor" stroke-width="2" stroke-linecap="round" stroke-linejoin="round">
  <rect width="6" height="16" x="4" y="6" rx="2"/>
  <rect width="6" height="9" x="14" y="6" rx="2"/>
  <path d="M22 2H2"/>
</symbol><symbol id="align-start-vertical" viewBox="0 0 24 24" fill="none" stroke="currentColor" stroke-width="2" stroke-linecap="round" stroke-linejoin="round">
  <rect width="9" height="6" x="6" y="14" rx="2"/>
  <rect width="16" height="6" x="6" y="4" rx="2"/>
  <path d="M2 2v20"/>
</symbol><symbol id="align-vertical-distribute-center" viewBox="0 0 24 24" fill="none" stroke="currentColor" stroke-width="2" stroke-linecap="round" stroke-linejoin="round">
  <path d="M22 17h-3"/>
  <path d="M22 7h-5"/>
  <path d="M5 17H2"/>
  <path d="M7 7H2"/>
  <rect x="5" y="14" width="14" height="6" rx="2"/>
  <rect x="7" y="4" width="10" height="6" rx="2"/>
</symbol><symbol id="align-vertical-distribute-end" viewBox="0 0 24 24" fill="none" stroke="currentColor" stroke-width="2" stroke-linecap="round" stroke-linejoin="round">
  <rect width="14" height="6" x="5" y="14" rx="2"/>
  <rect width="10" height="6" x="7" y="4" rx="2"/>
  <path d="M2 20h20"/>
  <path d="M2 10h20"/>
</symbol><symbol id="align-vertical-distribute-start" viewBox="0 0 24 24" fill="none" stroke="currentColor" stroke-width="2" stroke-linecap="round" stroke-linejoin="round">
  <rect width="14" height="6" x="5" y="14" rx="2"/>
  <rect width="10" height="6" x="7" y="4" rx="2"/>
  <path d="M2 14h20"/>
  <path d="M2 4h20"/>
</symbol><symbol id="align-vertical-justify-center" viewBox="0 0 24 24" fill="none" stroke="currentColor" stroke-width="2" stroke-linecap="round" stroke-linejoin="round">
  <rect width="14" height="6" x="5" y="16" rx="2"/>
  <rect width="10" height="6" x="7" y="2" rx="2"/>
  <path d="M2 12h20"/>
</symbol><symbol id="align-vertical-justify-end" viewBox="0 0 24 24" fill="none" stroke="currentColor" stroke-width="2" stroke-linecap="round" stroke-linejoin="round">
  <rect width="14" height="6" x="5" y="12" rx="2"/>
  <rect width="10" height="6" x="7" y="2" rx="2"/>
  <path d="M2 22h20"/>
</symbol><symbol id="align-vertical-justify-start" viewBox="0 0 24 24" fill="none" stroke="currentColor" stroke-width="2" stroke-linecap="round" stroke-linejoin="round">
  <rect width="14" height="6" x="5" y="16" rx="2"/>
  <rect width="10" height="6" x="7" y="6" rx="2"/>
  <path d="M2 2h20"/>
</symbol><symbol id="align-vertical-space-around" viewBox="0 0 24 24" fill="none" stroke="currentColor" stroke-width="2" stroke-linecap="round" stroke-linejoin="round">
  <rect width="10" height="6" x="7" y="9" rx="2"/>
  <path d="M22 20H2"/>
  <path d="M22 4H2"/>
</symbol><symbol id="align-vertical-space-between" viewBox="0 0 24 24" fill="none" stroke="currentColor" stroke-width="2" stroke-linecap="round" stroke-linejoin="round">
  <rect width="14" height="6" x="5" y="15" rx="2"/>
  <rect width="10" height="6" x="7" y="3" rx="2"/>
  <path d="M2 21h20"/>
  <path d="M2 3h20"/>
</symbol><symbol id="ambulance" viewBox="0 0 24 24" fill="none" stroke="currentColor" stroke-width="2" stroke-linecap="round" stroke-linejoin="round">
  <path d="M10 10H6"/>
  <path d="M14 18V6a2 2 0 0 0-2-2H4a2 2 0 0 0-2 2v11a1 1 0 0 0 1 1h2"/>
  <path d="M19 18h2a1 1 0 0 0 1-1v-3.28a1 1 0 0 0-.684-.948l-1.923-.641a1 1 0 0 1-.578-.502l-1.539-3.076A1 1 0 0 0 16.382 8H14"/>
  <path d="M8 8v4"/>
  <path d="M9 18h6"/>
  <circle cx="17" cy="18" r="2"/>
  <circle cx="7" cy="18" r="2"/>
</symbol><symbol id="ampersand" viewBox="0 0 24 24" fill="none" stroke="currentColor" stroke-width="2" stroke-linecap="round" stroke-linejoin="round">
  <path d="M17.5 12c0 4.4-3.6 8-8 8A4.5 4.5 0 0 1 5 15.5c0-6 8-4 8-8.5a3 3 0 1 0-6 0c0 3 2.5 8.5 12 13"/>
  <path d="M16 12h3"/>
</symbol><symbol id="ampersands" viewBox="0 0 24 24" fill="none" stroke="currentColor" stroke-width="2" stroke-linecap="round" stroke-linejoin="round">
  <path d="M10 17c-5-3-7-7-7-9a2 2 0 0 1 4 0c0 2.5-5 2.5-5 6 0 1.7 1.3 3 3 3 2.8 0 5-2.2 5-5"/>
  <path d="M22 17c-5-3-7-7-7-9a2 2 0 0 1 4 0c0 2.5-5 2.5-5 6 0 1.7 1.3 3 3 3 2.8 0 5-2.2 5-5"/>
</symbol><symbol id="amphora" viewBox="0 0 24 24" fill="none" stroke="currentColor" stroke-width="2" stroke-linecap="round" stroke-linejoin="round">
  <path d="M10 2v5.632c0 .424-.272.795-.653.982A6 6 0 0 0 6 14c.006 4 3 7 5 8"/>
  <path d="M10 5H8a2 2 0 0 0 0 4h.68"/>
  <path d="M14 2v5.632c0 .424.272.795.652.982A6 6 0 0 1 18 14c0 4-3 7-5 8"/>
  <path d="M14 5h2a2 2 0 0 1 0 4h-.68"/>
  <path d="M18 22H6"/>
  <path d="M9 2h6"/>
</symbol><symbol id="anchor" viewBox="0 0 24 24" fill="none" stroke="currentColor" stroke-width="2" stroke-linecap="round" stroke-linejoin="round">
  <path d="M12 22V8"/>
  <path d="M5 12H2a10 10 0 0 0 20 0h-3"/>
  <circle cx="12" cy="5" r="3"/>
</symbol><symbol id="angry" viewBox="0 0 24 24" fill="none" stroke="currentColor" stroke-width="2" stroke-linecap="round" stroke-linejoin="round">
  <circle cx="12" cy="12" r="10"/>
  <path d="M16 16s-1.5-2-4-2-4 2-4 2"/>
  <path d="M7.5 8 10 9"/>
  <path d="m14 9 2.5-1"/>
  <path d="M9 10h.01"/>
  <path d="M15 10h.01"/>
</symbol><symbol id="annoyed" viewBox="0 0 24 24" fill="none" stroke="currentColor" stroke-width="2" stroke-linecap="round" stroke-linejoin="round">
  <circle cx="12" cy="12" r="10"/>
  <path d="M8 15h8"/>
  <path d="M8 9h2"/>
  <path d="M14 9h2"/>
</symbol><symbol id="antenna" viewBox="0 0 24 24" fill="none" stroke="currentColor" stroke-width="2" stroke-linecap="round" stroke-linejoin="round">
  <path d="M2 12 7 2"/>
  <path d="m7 12 5-10"/>
  <path d="m12 12 5-10"/>
  <path d="m17 12 5-10"/>
  <path d="M4.5 7h15"/>
  <path d="M12 16v6"/>
</symbol><symbol id="anvil" viewBox="0 0 24 24" fill="none" stroke="currentColor" stroke-width="2" stroke-linecap="round" stroke-linejoin="round">
  <path d="M7 10H6a4 4 0 0 1-4-4 1 1 0 0 1 1-1h4"/>
  <path d="M7 5a1 1 0 0 1 1-1h13a1 1 0 0 1 1 1 7 7 0 0 1-7 7H8a1 1 0 0 1-1-1z"/>
  <path d="M9 12v5"/>
  <path d="M15 12v5"/>
  <path d="M5 20a3 3 0 0 1 3-3h8a3 3 0 0 1 3 3 1 1 0 0 1-1 1H6a1 1 0 0 1-1-1"/>
</symbol><symbol id="aperture" viewBox="0 0 24 24" fill="none" stroke="currentColor" stroke-width="2" stroke-linecap="round" stroke-linejoin="round">
  <circle cx="12" cy="12" r="10"/>
  <path d="m14.31 8 5.74 9.94"/>
  <path d="M9.69 8h11.48"/>
  <path d="m7.38 12 5.74-9.94"/>
  <path d="M9.69 16 3.95 6.06"/>
  <path d="M14.31 16H2.83"/>
  <path d="m16.62 12-5.74 9.94"/>
</symbol><symbol id="app-window-mac" viewBox="0 0 24 24" fill="none" stroke="currentColor" stroke-width="2" stroke-linecap="round" stroke-linejoin="round">
  <rect width="20" height="16" x="2" y="4" rx="2"/>
  <path d="M6 8h.01"/>
  <path d="M10 8h.01"/>
  <path d="M14 8h.01"/>
</symbol><symbol id="app-window" viewBox="0 0 24 24" fill="none" stroke="currentColor" stroke-width="2" stroke-linecap="round" stroke-linejoin="round">
  <rect x="2" y="4" width="20" height="16" rx="2"/>
  <path d="M10 4v4"/>
  <path d="M2 8h20"/>
  <path d="M6 4v4"/>
</symbol><symbol id="apple" viewBox="0 0 24 24" fill="none" stroke="currentColor" stroke-width="2" stroke-linecap="round" stroke-linejoin="round">
  <path d="M12 20.94c1.5 0 2.75 1.06 4 1.06 3 0 6-8 6-12.22A4.91 4.91 0 0 0 17 5c-2.22 0-4 1.44-5 2-1-.56-2.78-2-5-2a4.9 4.9 0 0 0-5 4.78C2 14 5 22 8 22c1.25 0 2.5-1.06 4-1.06Z"/>
  <path d="M10 2c1 .5 2 2 2 5"/>
</symbol><symbol id="archive-restore" viewBox="0 0 24 24" fill="none" stroke="currentColor" stroke-width="2" stroke-linecap="round" stroke-linejoin="round">
  <rect width="20" height="5" x="2" y="3" rx="1"/>
  <path d="M4 8v11a2 2 0 0 0 2 2h2"/>
  <path d="M20 8v11a2 2 0 0 1-2 2h-2"/>
  <path d="m9 15 3-3 3 3"/>
  <path d="M12 12v9"/>
</symbol><symbol id="archive-x" viewBox="0 0 24 24" fill="none" stroke="currentColor" stroke-width="2" stroke-linecap="round" stroke-linejoin="round">
  <rect width="20" height="5" x="2" y="3" rx="1"/>
  <path d="M4 8v11a2 2 0 0 0 2 2h12a2 2 0 0 0 2-2V8"/>
  <path d="m9.5 17 5-5"/>
  <path d="m9.5 12 5 5"/>
</symbol><symbol id="archive" viewBox="0 0 24 24" fill="none" stroke="currentColor" stroke-width="2" stroke-linecap="round" stroke-linejoin="round">
  <rect width="20" height="5" x="2" y="3" rx="1"/>
  <path d="M4 8v11a2 2 0 0 0 2 2h12a2 2 0 0 0 2-2V8"/>
  <path d="M10 12h4"/>
</symbol><symbol id="armchair" viewBox="0 0 24 24" fill="none" stroke="currentColor" stroke-width="2" stroke-linecap="round" stroke-linejoin="round">
  <path d="M19 9V6a2 2 0 0 0-2-2H7a2 2 0 0 0-2 2v3"/>
  <path d="M3 16a2 2 0 0 0 2 2h14a2 2 0 0 0 2-2v-5a2 2 0 0 0-4 0v1.5a.5.5 0 0 1-.5.5h-9a.5.5 0 0 1-.5-.5V11a2 2 0 0 0-4 0z"/>
  <path d="M5 18v2"/>
  <path d="M19 18v2"/>
</symbol><symbol id="arrow-big-down-dash" viewBox="0 0 24 24" fill="none" stroke="currentColor" stroke-width="2" stroke-linecap="round" stroke-linejoin="round">
  <path d="M15 5H9"/>
  <path d="M15 9v3h4l-7 7-7-7h4V9z"/>
</symbol><symbol id="arrow-big-down" viewBox="0 0 24 24" fill="none" stroke="currentColor" stroke-width="2" stroke-linecap="round" stroke-linejoin="round">
  <path d="M15 6v6h4l-7 7-7-7h4V6h6z"/>
</symbol><symbol id="arrow-big-left-dash" viewBox="0 0 24 24" fill="none" stroke="currentColor" stroke-width="2" stroke-linecap="round" stroke-linejoin="round">
  <path d="M19 15V9"/>
  <path d="M15 15h-3v4l-7-7 7-7v4h3v6z"/>
</symbol><symbol id="arrow-big-left" viewBox="0 0 24 24" fill="none" stroke="currentColor" stroke-width="2" stroke-linecap="round" stroke-linejoin="round">
  <path d="M18 15h-6v4l-7-7 7-7v4h6v6z"/>
</symbol><symbol id="arrow-big-right-dash" viewBox="0 0 24 24" fill="none" stroke="currentColor" stroke-width="2" stroke-linecap="round" stroke-linejoin="round">
  <path d="M5 9v6"/>
  <path d="M9 9h3V5l7 7-7 7v-4H9V9z"/>
</symbol><symbol id="arrow-big-right" viewBox="0 0 24 24" fill="none" stroke="currentColor" stroke-width="2" stroke-linecap="round" stroke-linejoin="round">
  <path d="M6 9h6V5l7 7-7 7v-4H6V9z"/>
</symbol><symbol id="arrow-big-up-dash" viewBox="0 0 24 24" fill="none" stroke="currentColor" stroke-width="2" stroke-linecap="round" stroke-linejoin="round">
  <path d="M9 19h6"/>
  <path d="M9 15v-3H5l7-7 7 7h-4v3H9z"/>
</symbol><symbol id="arrow-big-up" viewBox="0 0 24 24" fill="none" stroke="currentColor" stroke-width="2" stroke-linecap="round" stroke-linejoin="round">
  <path d="M9 18v-6H5l7-7 7 7h-4v6H9z"/>
</symbol><symbol id="arrow-down-0-1" viewBox="0 0 24 24" fill="none" stroke="currentColor" stroke-width="2" stroke-linecap="round" stroke-linejoin="round">
  <path d="m3 16 4 4 4-4"/>
  <path d="M7 20V4"/>
  <rect x="15" y="4" width="4" height="6" ry="2"/>
  <path d="M17 20v-6h-2"/>
  <path d="M15 20h4"/>
</symbol><symbol id="arrow-down-1-0" viewBox="0 0 24 24" fill="none" stroke="currentColor" stroke-width="2" stroke-linecap="round" stroke-linejoin="round">
  <path d="m3 16 4 4 4-4"/>
  <path d="M7 20V4"/>
  <path d="M17 10V4h-2"/>
  <path d="M15 10h4"/>
  <rect x="15" y="14" width="4" height="6" ry="2"/>
</symbol><symbol id="arrow-down-a-z" viewBox="0 0 24 24" fill="none" stroke="currentColor" stroke-width="2" stroke-linecap="round" stroke-linejoin="round">
  <path d="m3 16 4 4 4-4"/>
  <path d="M7 20V4"/>
  <path d="M20 8h-5"/>
  <path d="M15 10V6.5a2.5 2.5 0 0 1 5 0V10"/>
  <path d="M15 14h5l-5 6h5"/>
</symbol><symbol id="arrow-down-from-line" viewBox="0 0 24 24" fill="none" stroke="currentColor" stroke-width="2" stroke-linecap="round" stroke-linejoin="round">
  <path d="M19 3H5"/>
  <path d="M12 21V7"/>
  <path d="m6 15 6 6 6-6"/>
</symbol><symbol id="arrow-down-left" viewBox="0 0 24 24" fill="none" stroke="currentColor" stroke-width="2" stroke-linecap="round" stroke-linejoin="round">
  <path d="M17 7 7 17"/>
  <path d="M17 17H7V7"/>
</symbol><symbol id="arrow-down-narrow-wide" viewBox="0 0 24 24" fill="none" stroke="currentColor" stroke-width="2" stroke-linecap="round" stroke-linejoin="round">
  <path d="m3 16 4 4 4-4"/>
  <path d="M7 20V4"/>
  <path d="M11 4h4"/>
  <path d="M11 8h7"/>
  <path d="M11 12h10"/>
</symbol><symbol id="arrow-down-right" viewBox="0 0 24 24" fill="none" stroke="currentColor" stroke-width="2" stroke-linecap="round" stroke-linejoin="round">
  <path d="m7 7 10 10"/>
  <path d="M17 7v10H7"/>
</symbol><symbol id="arrow-down-to-dot" viewBox="0 0 24 24" fill="none" stroke="currentColor" stroke-width="2" stroke-linecap="round" stroke-linejoin="round">
  <path d="M12 2v14"/>
  <path d="m19 9-7 7-7-7"/>
  <circle cx="12" cy="21" r="1"/>
</symbol><symbol id="arrow-down-to-line" viewBox="0 0 24 24" fill="none" stroke="currentColor" stroke-width="2" stroke-linecap="round" stroke-linejoin="round">
  <path d="M12 17V3"/>
  <path d="m6 11 6 6 6-6"/>
  <path d="M19 21H5"/>
</symbol><symbol id="arrow-down-up" viewBox="0 0 24 24" fill="none" stroke="currentColor" stroke-width="2" stroke-linecap="round" stroke-linejoin="round">
  <path d="m3 16 4 4 4-4"/>
  <path d="M7 20V4"/>
  <path d="m21 8-4-4-4 4"/>
  <path d="M17 4v16"/>
</symbol><symbol id="arrow-down-wide-narrow" viewBox="0 0 24 24" fill="none" stroke="currentColor" stroke-width="2" stroke-linecap="round" stroke-linejoin="round">
  <path d="m3 16 4 4 4-4"/>
  <path d="M7 20V4"/>
  <path d="M11 4h10"/>
  <path d="M11 8h7"/>
  <path d="M11 12h4"/>
</symbol><symbol id="arrow-down-z-a" viewBox="0 0 24 24" fill="none" stroke="currentColor" stroke-width="2" stroke-linecap="round" stroke-linejoin="round">
  <path d="m3 16 4 4 4-4"/>
  <path d="M7 4v16"/>
  <path d="M15 4h5l-5 6h5"/>
  <path d="M15 20v-3.5a2.5 2.5 0 0 1 5 0V20"/>
  <path d="M20 18h-5"/>
</symbol><symbol id="arrow-down" viewBox="0 0 24 24" fill="none" stroke="currentColor" stroke-width="2" stroke-linecap="round" stroke-linejoin="round">
  <path d="M12 5v14"/>
  <path d="m19 12-7 7-7-7"/>
</symbol><symbol id="arrow-left-from-line" viewBox="0 0 24 24" fill="none" stroke="currentColor" stroke-width="2" stroke-linecap="round" stroke-linejoin="round">
  <path d="m9 6-6 6 6 6"/>
  <path d="M3 12h14"/>
  <path d="M21 19V5"/>
</symbol><symbol id="arrow-left-right" viewBox="0 0 24 24" fill="none" stroke="currentColor" stroke-width="2" stroke-linecap="round" stroke-linejoin="round">
  <path d="M8 3 4 7l4 4"/>
  <path d="M4 7h16"/>
  <path d="m16 21 4-4-4-4"/>
  <path d="M20 17H4"/>
</symbol><symbol id="arrow-left-to-line" viewBox="0 0 24 24" fill="none" stroke="currentColor" stroke-width="2" stroke-linecap="round" stroke-linejoin="round">
  <path d="M3 19V5"/>
  <path d="m13 6-6 6 6 6"/>
  <path d="M7 12h14"/>
</symbol><symbol id="arrow-left" viewBox="0 0 24 24" fill="none" stroke="currentColor" stroke-width="2" stroke-linecap="round" stroke-linejoin="round">
  <path d="m12 19-7-7 7-7"/>
  <path d="M19 12H5"/>
</symbol><symbol id="arrow-right-from-line" viewBox="0 0 24 24" fill="none" stroke="currentColor" stroke-width="2" stroke-linecap="round" stroke-linejoin="round">
  <path d="M3 5v14"/>
  <path d="M21 12H7"/>
  <path d="m15 18 6-6-6-6"/>
</symbol><symbol id="arrow-right-left" viewBox="0 0 24 24" fill="none" stroke="currentColor" stroke-width="2" stroke-linecap="round" stroke-linejoin="round">
  <path d="m16 3 4 4-4 4"/>
  <path d="M20 7H4"/>
  <path d="m8 21-4-4 4-4"/>
  <path d="M4 17h16"/>
</symbol><symbol id="arrow-right-to-line" viewBox="0 0 24 24" fill="none" stroke="currentColor" stroke-width="2" stroke-linecap="round" stroke-linejoin="round">
  <path d="M17 12H3"/>
  <path d="m11 18 6-6-6-6"/>
  <path d="M21 5v14"/>
</symbol><symbol id="arrow-right" viewBox="0 0 24 24" fill="none" stroke="currentColor" stroke-width="2" stroke-linecap="round" stroke-linejoin="round">
  <path d="M5 12h14"/>
  <path d="m12 5 7 7-7 7"/>
</symbol><symbol id="arrow-up-0-1" viewBox="0 0 24 24" fill="none" stroke="currentColor" stroke-width="2" stroke-linecap="round" stroke-linejoin="round">
  <path d="m3 8 4-4 4 4"/>
  <path d="M7 4v16"/>
  <rect x="15" y="4" width="4" height="6" ry="2"/>
  <path d="M17 20v-6h-2"/>
  <path d="M15 20h4"/>
</symbol><symbol id="arrow-up-1-0" viewBox="0 0 24 24" fill="none" stroke="currentColor" stroke-width="2" stroke-linecap="round" stroke-linejoin="round">
  <path d="m3 8 4-4 4 4"/>
  <path d="M7 4v16"/>
  <path d="M17 10V4h-2"/>
  <path d="M15 10h4"/>
  <rect x="15" y="14" width="4" height="6" ry="2"/>
</symbol><symbol id="arrow-up-a-z" viewBox="0 0 24 24" fill="none" stroke="currentColor" stroke-width="2" stroke-linecap="round" stroke-linejoin="round">
  <path d="m3 8 4-4 4 4"/>
  <path d="M7 4v16"/>
  <path d="M20 8h-5"/>
  <path d="M15 10V6.5a2.5 2.5 0 0 1 5 0V10"/>
  <path d="M15 14h5l-5 6h5"/>
</symbol><symbol id="arrow-up-down" viewBox="0 0 24 24" fill="none" stroke="currentColor" stroke-width="2" stroke-linecap="round" stroke-linejoin="round">
  <path d="m21 16-4 4-4-4"/>
  <path d="M17 20V4"/>
  <path d="m3 8 4-4 4 4"/>
  <path d="M7 4v16"/>
</symbol><symbol id="arrow-up-from-dot" viewBox="0 0 24 24" fill="none" stroke="currentColor" stroke-width="2" stroke-linecap="round" stroke-linejoin="round">
  <path d="m5 9 7-7 7 7"/>
  <path d="M12 16V2"/>
  <circle cx="12" cy="21" r="1"/>
</symbol><symbol id="arrow-up-from-line" viewBox="0 0 24 24" fill="none" stroke="currentColor" stroke-width="2" stroke-linecap="round" stroke-linejoin="round">
  <path d="m18 9-6-6-6 6"/>
  <path d="M12 3v14"/>
  <path d="M5 21h14"/>
</symbol><symbol id="arrow-up-left" viewBox="0 0 24 24" fill="none" stroke="currentColor" stroke-width="2" stroke-linecap="round" stroke-linejoin="round">
  <path d="M7 17V7h10"/>
  <path d="M17 17 7 7"/>
</symbol><symbol id="arrow-up-narrow-wide" viewBox="0 0 24 24" fill="none" stroke="currentColor" stroke-width="2" stroke-linecap="round" stroke-linejoin="round">
  <path d="m3 8 4-4 4 4"/>
  <path d="M7 4v16"/>
  <path d="M11 12h4"/>
  <path d="M11 16h7"/>
  <path d="M11 20h10"/>
</symbol><symbol id="arrow-up-right" viewBox="0 0 24 24" fill="none" stroke="currentColor" stroke-width="2" stroke-linecap="round" stroke-linejoin="round">
  <path d="M7 7h10v10"/>
  <path d="M7 17 17 7"/>
</symbol><symbol id="arrow-up-to-line" viewBox="0 0 24 24" fill="none" stroke="currentColor" stroke-width="2" stroke-linecap="round" stroke-linejoin="round">
  <path d="M5 3h14"/>
  <path d="m18 13-6-6-6 6"/>
  <path d="M12 7v14"/>
</symbol><symbol id="arrow-up-wide-narrow" viewBox="0 0 24 24" fill="none" stroke="currentColor" stroke-width="2" stroke-linecap="round" stroke-linejoin="round">
  <path d="m3 8 4-4 4 4"/>
  <path d="M7 4v16"/>
  <path d="M11 12h10"/>
  <path d="M11 16h7"/>
  <path d="M11 20h4"/>
</symbol><symbol id="arrow-up-z-a" viewBox="0 0 24 24" fill="none" stroke="currentColor" stroke-width="2" stroke-linecap="round" stroke-linejoin="round">
  <path d="m3 8 4-4 4 4"/>
  <path d="M7 4v16"/>
  <path d="M15 4h5l-5 6h5"/>
  <path d="M15 20v-3.5a2.5 2.5 0 0 1 5 0V20"/>
  <path d="M20 18h-5"/>
</symbol><symbol id="arrow-up" viewBox="0 0 24 24" fill="none" stroke="currentColor" stroke-width="2" stroke-linecap="round" stroke-linejoin="round">
  <path d="m5 12 7-7 7 7"/>
  <path d="M12 19V5"/>
</symbol><symbol id="arrows-up-from-line" viewBox="0 0 24 24" fill="none" stroke="currentColor" stroke-width="2" stroke-linecap="round" stroke-linejoin="round">
  <path d="m4 6 3-3 3 3"/>
  <path d="M7 17V3"/>
  <path d="m14 6 3-3 3 3"/>
  <path d="M17 17V3"/>
  <path d="M4 21h16"/>
</symbol><symbol id="asterisk" viewBox="0 0 24 24" fill="none" stroke="currentColor" stroke-width="2" stroke-linecap="round" stroke-linejoin="round">
  <path d="M12 6v12"/>
  <path d="M17.196 9 6.804 15"/>
  <path d="m6.804 9 10.392 6"/>
</symbol><symbol id="at-sign" viewBox="0 0 24 24" fill="none" stroke="currentColor" stroke-width="2" stroke-linecap="round" stroke-linejoin="round">
  <circle cx="12" cy="12" r="4"/>
  <path d="M16 8v5a3 3 0 0 0 6 0v-1a10 10 0 1 0-4 8"/>
</symbol><symbol id="atom" viewBox="0 0 24 24" fill="none" stroke="currentColor" stroke-width="2" stroke-linecap="round" stroke-linejoin="round">
  <circle cx="12" cy="12" r="1"/>
  <path d="M20.2 20.2c2.04-2.03.02-7.36-4.5-11.9-4.54-4.52-9.87-6.54-11.9-4.5-2.04 2.03-.02 7.36 4.5 11.9 4.54 4.52 9.87 6.54 11.9 4.5Z"/>
  <path d="M15.7 15.7c4.52-4.54 6.54-9.87 4.5-11.9-2.03-2.04-7.36-.02-11.9 4.5-4.52 4.54-6.54 9.87-4.5 11.9 2.03 2.04 7.36.02 11.9-4.5Z"/>
</symbol><symbol id="audio-lines" viewBox="0 0 24 24" fill="none" stroke="currentColor" stroke-width="2" stroke-linecap="round" stroke-linejoin="round">
  <path d="M2 10v3"/>
  <path d="M6 6v11"/>
  <path d="M10 3v18"/>
  <path d="M14 8v7"/>
  <path d="M18 5v13"/>
  <path d="M22 10v3"/>
</symbol><symbol id="audio-waveform" viewBox="0 0 24 24" fill="none" stroke="currentColor" stroke-width="2" stroke-linecap="round" stroke-linejoin="round">
  <path d="M2 13a2 2 0 0 0 2-2V7a2 2 0 0 1 4 0v13a2 2 0 0 0 4 0V4a2 2 0 0 1 4 0v13a2 2 0 0 0 4 0v-4a2 2 0 0 1 2-2"/>
</symbol><symbol id="award" viewBox="0 0 24 24" fill="none" stroke="currentColor" stroke-width="2" stroke-linecap="round" stroke-linejoin="round">
  <path d="m15.477 12.89 1.515 8.526a.5.5 0 0 1-.81.47l-3.58-2.687a1 1 0 0 0-1.197 0l-3.586 2.686a.5.5 0 0 1-.81-.469l1.514-8.526"/>
  <circle cx="12" cy="8" r="6"/>
</symbol><symbol id="axe" viewBox="0 0 24 24" fill="none" stroke="currentColor" stroke-width="2" stroke-linecap="round" stroke-linejoin="round">
  <path d="m14 12-8.381 8.38a1 1 0 0 1-3.001-3L11 9"/>
  <path d="M15 15.5a.5.5 0 0 0 .5.5A6.5 6.5 0 0 0 22 9.5a.5.5 0 0 0-.5-.5h-1.672a2 2 0 0 1-1.414-.586l-5.062-5.062a1.205 1.205 0 0 0-1.704 0L9.352 5.648a1.205 1.205 0 0 0 0 1.704l5.062 5.062A2 2 0 0 1 15 13.828z"/>
</symbol><symbol id="axis-3d" viewBox="0 0 24 24" fill="none" stroke="currentColor" stroke-width="2" stroke-linecap="round" stroke-linejoin="round">
  <path d="M13.5 10.5 15 9"/>
  <path d="M4 4v15a1 1 0 0 0 1 1h15"/>
  <path d="M4.293 19.707 6 18"/>
  <path d="m9 15 1.5-1.5"/>
</symbol><symbol id="baby" viewBox="0 0 24 24" fill="none" stroke="currentColor" stroke-width="2" stroke-linecap="round" stroke-linejoin="round">
  <path d="M10 16c.5.3 1.2.5 2 .5s1.5-.2 2-.5"/>
  <path d="M15 12h.01"/>
  <path d="M19.38 6.813A9 9 0 0 1 20.8 10.2a2 2 0 0 1 0 3.6 9 9 0 0 1-17.6 0 2 2 0 0 1 0-3.6A9 9 0 0 1 12 3c2 0 3.5 1.1 3.5 2.5s-.9 2.5-2 2.5c-.8 0-1.5-.4-1.5-1"/>
  <path d="M9 12h.01"/>
</symbol><symbol id="backpack" viewBox="0 0 24 24" fill="none" stroke="currentColor" stroke-width="2" stroke-linecap="round" stroke-linejoin="round">
  <path d="M4 10a4 4 0 0 1 4-4h8a4 4 0 0 1 4 4v10a2 2 0 0 1-2 2H6a2 2 0 0 1-2-2z"/>
  <path d="M8 10h8"/>
  <path d="M8 18h8"/>
  <path d="M8 22v-6a2 2 0 0 1 2-2h4a2 2 0 0 1 2 2v6"/>
  <path d="M9 6V4a2 2 0 0 1 2-2h2a2 2 0 0 1 2 2v2"/>
</symbol><symbol id="badge-alert" viewBox="0 0 24 24" fill="none" stroke="currentColor" stroke-width="2" stroke-linecap="round" stroke-linejoin="round">
  <path d="M3.85 8.62a4 4 0 0 1 4.78-4.77 4 4 0 0 1 6.74 0 4 4 0 0 1 4.78 4.78 4 4 0 0 1 0 6.74 4 4 0 0 1-4.77 4.78 4 4 0 0 1-6.75 0 4 4 0 0 1-4.78-4.77 4 4 0 0 1 0-6.76Z"/>
  <line x1="12" x2="12" y1="8" y2="12"/>
  <line x1="12" x2="12.01" y1="16" y2="16"/>
</symbol><symbol id="badge-cent" viewBox="0 0 24 24" fill="none" stroke="currentColor" stroke-width="2" stroke-linecap="round" stroke-linejoin="round">
  <path d="M3.85 8.62a4 4 0 0 1 4.78-4.77 4 4 0 0 1 6.74 0 4 4 0 0 1 4.78 4.78 4 4 0 0 1 0 6.74 4 4 0 0 1-4.77 4.78 4 4 0 0 1-6.75 0 4 4 0 0 1-4.78-4.77 4 4 0 0 1 0-6.76Z"/>
  <path d="M12 7v10"/>
  <path d="M15.4 10a4 4 0 1 0 0 4"/>
</symbol><symbol id="badge-check" viewBox="0 0 24 24" fill="none" stroke="currentColor" stroke-width="2" stroke-linecap="round" stroke-linejoin="round">
  <path d="M3.85 8.62a4 4 0 0 1 4.78-4.77 4 4 0 0 1 6.74 0 4 4 0 0 1 4.78 4.78 4 4 0 0 1 0 6.74 4 4 0 0 1-4.77 4.78 4 4 0 0 1-6.75 0 4 4 0 0 1-4.78-4.77 4 4 0 0 1 0-6.76Z"/>
  <path d="m9 12 2 2 4-4"/>
</symbol><symbol id="badge-dollar-sign" viewBox="0 0 24 24" fill="none" stroke="currentColor" stroke-width="2" stroke-linecap="round" stroke-linejoin="round">
  <path d="M3.85 8.62a4 4 0 0 1 4.78-4.77 4 4 0 0 1 6.74 0 4 4 0 0 1 4.78 4.78 4 4 0 0 1 0 6.74 4 4 0 0 1-4.77 4.78 4 4 0 0 1-6.75 0 4 4 0 0 1-4.78-4.77 4 4 0 0 1 0-6.76Z"/>
  <path d="M16 8h-6a2 2 0 1 0 0 4h4a2 2 0 1 1 0 4H8"/>
  <path d="M12 18V6"/>
</symbol><symbol id="badge-euro" viewBox="0 0 24 24" fill="none" stroke="currentColor" stroke-width="2" stroke-linecap="round" stroke-linejoin="round">
  <path d="M3.85 8.62a4 4 0 0 1 4.78-4.77 4 4 0 0 1 6.74 0 4 4 0 0 1 4.78 4.78 4 4 0 0 1 0 6.74 4 4 0 0 1-4.77 4.78 4 4 0 0 1-6.75 0 4 4 0 0 1-4.78-4.77 4 4 0 0 1 0-6.76Z"/>
  <path d="M7 12h5"/>
  <path d="M15 9.4a4 4 0 1 0 0 5.2"/>
</symbol><symbol id="badge-indian-rupee" viewBox="0 0 24 24" fill="none" stroke="currentColor" stroke-width="2" stroke-linecap="round" stroke-linejoin="round">
  <path d="M3.85 8.62a4 4 0 0 1 4.78-4.77 4 4 0 0 1 6.74 0 4 4 0 0 1 4.78 4.78 4 4 0 0 1 0 6.74 4 4 0 0 1-4.77 4.78 4 4 0 0 1-6.75 0 4 4 0 0 1-4.78-4.77 4 4 0 0 1 0-6.76Z"/>
  <path d="M8 8h8"/>
  <path d="M8 12h8"/>
  <path d="m13 17-5-1h1a4 4 0 0 0 0-8"/>
</symbol><symbol id="badge-info" viewBox="0 0 24 24" fill="none" stroke="currentColor" stroke-width="2" stroke-linecap="round" stroke-linejoin="round">
  <path d="M3.85 8.62a4 4 0 0 1 4.78-4.77 4 4 0 0 1 6.74 0 4 4 0 0 1 4.78 4.78 4 4 0 0 1 0 6.74 4 4 0 0 1-4.77 4.78 4 4 0 0 1-6.75 0 4 4 0 0 1-4.78-4.77 4 4 0 0 1 0-6.76Z"/>
  <line x1="12" x2="12" y1="16" y2="12"/>
  <line x1="12" x2="12.01" y1="8" y2="8"/>
</symbol><symbol id="badge-japanese-yen" viewBox="0 0 24 24" fill="none" stroke="currentColor" stroke-width="2" stroke-linecap="round" stroke-linejoin="round">
  <path d="M3.85 8.62a4 4 0 0 1 4.78-4.77 4 4 0 0 1 6.74 0 4 4 0 0 1 4.78 4.78 4 4 0 0 1 0 6.74 4 4 0 0 1-4.77 4.78 4 4 0 0 1-6.75 0 4 4 0 0 1-4.78-4.77 4 4 0 0 1 0-6.76Z"/>
  <path d="m9 8 3 3v7"/>
  <path d="m12 11 3-3"/>
  <path d="M9 12h6"/>
  <path d="M9 16h6"/>
</symbol><symbol id="badge-minus" viewBox="0 0 24 24" fill="none" stroke="currentColor" stroke-width="2" stroke-linecap="round" stroke-linejoin="round">
  <path d="M3.85 8.62a4 4 0 0 1 4.78-4.77 4 4 0 0 1 6.74 0 4 4 0 0 1 4.78 4.78 4 4 0 0 1 0 6.74 4 4 0 0 1-4.77 4.78 4 4 0 0 1-6.75 0 4 4 0 0 1-4.78-4.77 4 4 0 0 1 0-6.76Z"/>
  <line x1="8" x2="16" y1="12" y2="12"/>
</symbol><symbol id="badge-percent" viewBox="0 0 24 24" fill="none" stroke="currentColor" stroke-width="2" stroke-linecap="round" stroke-linejoin="round">
  <path d="M3.85 8.62a4 4 0 0 1 4.78-4.77 4 4 0 0 1 6.74 0 4 4 0 0 1 4.78 4.78 4 4 0 0 1 0 6.74 4 4 0 0 1-4.77 4.78 4 4 0 0 1-6.75 0 4 4 0 0 1-4.78-4.77 4 4 0 0 1 0-6.76Z"/>
  <path d="m15 9-6 6"/>
  <path d="M9 9h.01"/>
  <path d="M15 15h.01"/>
</symbol><symbol id="badge-plus" viewBox="0 0 24 24" fill="none" stroke="currentColor" stroke-width="2" stroke-linecap="round" stroke-linejoin="round">
  <path d="M3.85 8.62a4 4 0 0 1 4.78-4.77 4 4 0 0 1 6.74 0 4 4 0 0 1 4.78 4.78 4 4 0 0 1 0 6.74 4 4 0 0 1-4.77 4.78 4 4 0 0 1-6.75 0 4 4 0 0 1-4.78-4.77 4 4 0 0 1 0-6.76Z"/>
  <line x1="12" x2="12" y1="8" y2="16"/>
  <line x1="8" x2="16" y1="12" y2="12"/>
</symbol><symbol id="badge-pound-sterling" viewBox="0 0 24 24" fill="none" stroke="currentColor" stroke-width="2" stroke-linecap="round" stroke-linejoin="round">
  <path d="M3.85 8.62a4 4 0 0 1 4.78-4.77 4 4 0 0 1 6.74 0 4 4 0 0 1 4.78 4.78 4 4 0 0 1 0 6.74 4 4 0 0 1-4.77 4.78 4 4 0 0 1-6.75 0 4 4 0 0 1-4.78-4.77 4 4 0 0 1 0-6.76Z"/>
  <path d="M8 12h4"/>
  <path d="M10 16V9.5a2.5 2.5 0 0 1 5 0"/>
  <path d="M8 16h7"/>
</symbol><symbol id="badge-russian-ruble" viewBox="0 0 24 24" fill="none" stroke="currentColor" stroke-width="2" stroke-linecap="round" stroke-linejoin="round">
  <path d="M3.85 8.62a4 4 0 0 1 4.78-4.77 4 4 0 0 1 6.74 0 4 4 0 0 1 4.78 4.78 4 4 0 0 1 0 6.74 4 4 0 0 1-4.77 4.78 4 4 0 0 1-6.75 0 4 4 0 0 1-4.78-4.77 4 4 0 0 1 0-6.76Z"/>
  <path d="M9 16h5"/>
  <path d="M9 12h5a2 2 0 1 0 0-4h-3v9"/>
</symbol><symbol id="badge-swiss-franc" viewBox="0 0 24 24" fill="none" stroke="currentColor" stroke-width="2" stroke-linecap="round" stroke-linejoin="round">
  <path d="M3.85 8.62a4 4 0 0 1 4.78-4.77 4 4 0 0 1 6.74 0 4 4 0 0 1 4.78 4.78 4 4 0 0 1 0 6.74 4 4 0 0 1-4.77 4.78 4 4 0 0 1-6.75 0 4 4 0 0 1-4.78-4.77 4 4 0 0 1 0-6.76Z"/>
  <path d="M11 17V8h4"/>
  <path d="M11 12h3"/>
  <path d="M9 16h4"/>
</symbol><symbol id="badge-x" viewBox="0 0 24 24" fill="none" stroke="currentColor" stroke-width="2" stroke-linecap="round" stroke-linejoin="round">
  <path d="M3.85 8.62a4 4 0 0 1 4.78-4.77 4 4 0 0 1 6.74 0 4 4 0 0 1 4.78 4.78 4 4 0 0 1 0 6.74 4 4 0 0 1-4.77 4.78 4 4 0 0 1-6.75 0 4 4 0 0 1-4.78-4.77 4 4 0 0 1 0-6.76Z"/>
  <line x1="15" x2="9" y1="9" y2="15"/>
  <line x1="9" x2="15" y1="9" y2="15"/>
</symbol><symbol id="badge" viewBox="0 0 24 24" fill="none" stroke="currentColor" stroke-width="2" stroke-linecap="round" stroke-linejoin="round">
  <path d="M3.85 8.62a4 4 0 0 1 4.78-4.77 4 4 0 0 1 6.74 0 4 4 0 0 1 4.78 4.78 4 4 0 0 1 0 6.74 4 4 0 0 1-4.77 4.78 4 4 0 0 1-6.75 0 4 4 0 0 1-4.78-4.77 4 4 0 0 1 0-6.76Z"/>
</symbol><symbol id="baggage-claim" viewBox="0 0 24 24" fill="none" stroke="currentColor" stroke-width="2" stroke-linecap="round" stroke-linejoin="round">
  <path d="M22 18H6a2 2 0 0 1-2-2V7a2 2 0 0 0-2-2"/>
  <path d="M17 14V4a2 2 0 0 0-2-2h-1a2 2 0 0 0-2 2v10"/>
  <rect width="13" height="8" x="8" y="6" rx="1"/>
  <circle cx="18" cy="20" r="2"/>
  <circle cx="9" cy="20" r="2"/>
</symbol><symbol id="ban" viewBox="0 0 24 24" fill="none" stroke="currentColor" stroke-width="2" stroke-linecap="round" stroke-linejoin="round">
  <circle cx="12" cy="12" r="10"/>
  <path d="m4.9 4.9 14.2 14.2"/>
</symbol><symbol id="banana" viewBox="0 0 24 24" fill="none" stroke="currentColor" stroke-width="2" stroke-linecap="round" stroke-linejoin="round">
  <path d="M4 13c3.5-2 8-2 10 2a5.5 5.5 0 0 1 8 5"/>
  <path d="M5.15 17.89c5.52-1.52 8.65-6.89 7-12C11.55 4 11.5 2 13 2c3.22 0 5 5.5 5 8 0 6.5-4.2 12-10.49 12C5.11 22 2 22 2 20c0-1.5 1.14-1.55 3.15-2.11Z"/>
</symbol><symbol id="bandage" viewBox="0 0 24 24" fill="none" stroke="currentColor" stroke-width="2" stroke-linecap="round" stroke-linejoin="round">
  <path d="M10 10.01h.01"/>
  <path d="M10 14.01h.01"/>
  <path d="M14 10.01h.01"/>
  <path d="M14 14.01h.01"/>
  <path d="M18 6v11.5"/>
  <path d="M6 6v12"/>
  <rect x="2" y="6" width="20" height="12" rx="2"/>
</symbol><symbol id="banknote" viewBox="0 0 24 24" fill="none" stroke="currentColor" stroke-width="2" stroke-linecap="round" stroke-linejoin="round">
  <rect width="20" height="12" x="2" y="6" rx="2"/>
  <circle cx="12" cy="12" r="2"/>
  <path d="M6 12h.01M18 12h.01"/>
</symbol><symbol id="barcode" viewBox="0 0 24 24" fill="none" stroke="currentColor" stroke-width="2" stroke-linecap="round" stroke-linejoin="round">
  <path d="M3 5v14"/>
  <path d="M8 5v14"/>
  <path d="M12 5v14"/>
  <path d="M17 5v14"/>
  <path d="M21 5v14"/>
</symbol><symbol id="baseline" viewBox="0 0 24 24" fill="none" stroke="currentColor" stroke-width="2" stroke-linecap="round" stroke-linejoin="round">
  <path d="M4 20h16"/>
  <path d="m6 16 6-12 6 12"/>
  <path d="M8 12h8"/>
</symbol><symbol id="bath" viewBox="0 0 24 24" fill="none" stroke="currentColor" stroke-width="2" stroke-linecap="round" stroke-linejoin="round">
  <path d="M10 4 8 6"/>
  <path d="M17 19v2"/>
  <path d="M2 12h20"/>
  <path d="M7 19v2"/>
  <path d="M9 5 7.621 3.621A2.121 2.121 0 0 0 4 5v12a2 2 0 0 0 2 2h12a2 2 0 0 0 2-2v-5"/>
</symbol><symbol id="battery" viewBox="0 0 24 24" fill="none" stroke="currentColor" stroke-width="2" stroke-linecap="round" stroke-linejoin="round">
  <path d="M 22 14 L 22 10"/>
  <rect x="2" y="6" width="16" height="12" rx="2"/>
</symbol><symbol id="ai" viewBox="0 0 1024 1024" fill="currentColor" stroke="currentColor" stroke-width="0"><path d="M880 184H712v-64c0-4.4-3.6-8-8-8h-56c-4.4 0-8 3.6-8 8v64H384v-64c0-4.4-3.6-8-8-8h-56c-4.4 0-8 3.6-8 8v64H144c-17.7 0-32 14.3-32 32v664c0 17.7 14.3 32 32 32h736c17.7 0 32-14.3 32-32V216c0-17.7-14.3-32-32-32zM648.3 426.8l-87.7 161.1h45.7c5.5 0 10 4.5 10 10v21.3c0 5.5-4.5 10-10 10h-63.4v29.7h63.4c5.5 0 10 4.5 10 10v21.3c0 5.5-4.5 10-10 10h-63.4V752c0 5.5-4.5 10-10 10h-41.3c-5.5 0-10-4.5-10-10v-51.8h-63.1c-5.5 0-10-4.5-10-10v-21.3c0-5.5 4.5-10 10-10h63.1v-29.7h-63.1c-5.5 0-10-4.5-10-10v-21.3c0-5.5 4.5-10 10-10h45.2l-88-161.1c-2.6-4.8-.9-10.9 4-13.6 1.5-.8 3.1-1.2 4.8-1.2h46c3.8 0 7.2 2.1 8.9 5.5l72.9 144.3 73.2-144.3a10 10 0 0 1 8.9-5.5h45c5.5 0 10 4.5 10 10 .1 1.7-.3 3.3-1.1 4.8z"/></symbol><symbol id="google-ads" viewBox="0 0 24 24" role="img" fill="currentColor" stroke="currentColor" stroke-width="0"><path d="M3.9998 22.9291C1.7908 22.9291 0 21.1383 0 18.9293s1.7908-3.9998 3.9998-3.9998 3.9998 1.7908 3.9998 3.9998-1.7908 3.9998-3.9998 3.9998zm19.4643-6.0004L15.4632 3.072C14.3586 1.1587 11.9121.5028 9.9988 1.6074S7.4295 5.1585 8.5341 7.0718l8.0009 13.8567c1.1046 1.9133 3.5511 2.5679 5.4644 1.4646 1.9134-1.1046 2.568-3.5511 1.4647-5.4644zM7.5137 4.8438L1.5645 15.1484A4.5 4.5 0 0 1 4 14.4297c2.5597-.0075 4.6248 2.1585 4.4941 4.7148l3.2168-5.5723-3.6094-6.25c-.4499-.7793-.6322-1.6394-.5878-2.4784z"/></symbol></svg>